<?xml version="1.0" standalone="no"?>
<!DOCTYPE svg PUBLIC "-//W3C//DTD SVG 1.1//EN" "http://www.w3.org/Graphics/SVG/1.1/DTD/svg11.dtd">
<svg xmlns="http://www.w3.org/2000/svg">
<metadata>Copyright (C) 2022 by original authors @ fontello.com</metadata>
<defs>
<font id="credence" horiz-adv-x="1000" >
<font-face font-family="credence" font-weight="400" font-stretch="normal" units-per-em="1000" ascent="850" descent="-150" />
<missing-glyph horiz-adv-x="1000" />
<glyph glyph-name="confirm-logout" unicode="&#xe800;" d="M250 577c0 31 24 56 54 56h193c21 0 38-17 38-38 0-22-17-39-38-39h-172v-414h172c21 0 38-17 38-38 0-22-17-39-38-39h-193c-30 0-54 25-54 56v456z m361-51l154-159c9-10 9-26 0-35l-154-159c-10-10-25-10-34 0-10 9-10 25 0 35l112 116-304 0c-13 0-24 11-24 25 0 14 11 25 24 25l304 0-112 116c-10 10-10 26 0 36 9 9 24 9 34 0z" horiz-adv-x="1000" />

<glyph glyph-name="confirm-delete" unicode="&#xe801;" d="M492 843c-272 0-492-221-492-492 0-272 220-492 492-492 272 0 492 220 492 492 0 271-220 492-492 492z m241-621c9-10 9-25 0-34l-79-78c-9-10-24-10-33 0l-129 130-129-130c-10-10-25-10-34 0l-78 78c-10 9-10 25 0 34l130 129-130 129c-10 9-10 24 0 34l78 78c10 9 25 9 34 0l129-130 129 130c9 9 24 9 34 0l78-79c10-9 10-24 0-33l-130-129 130-129z" horiz-adv-x="984" />

<glyph glyph-name="help" unicode="&#xe802;" d="M432 215c-1 27-1 49 2 66 3 18 10 33 19 47 10 14 24 27 41 40l45 34c15 10 25 20 32 30 7 9 10 19 10 28 0 11-3 21-10 29-7 8-16 15-28 20-11 5-24 8-39 8-24 0-46-7-66-20-19-13-33-30-41-51l-110 41c11 29 27 54 49 75 21 21 47 38 76 49 30 12 63 18 97 18 39 0 74-7 105-22 30-14 54-33 72-57 18-24 27-51 27-82 0-21-3-39-10-55-6-17-17-33-33-48-15-15-36-32-62-51l-21-14c-16-10-28-22-34-35-6-12-9-29-9-50h-112z m56-192c-21 0-39 8-55 23-15 16-22 34-22 55 0 22 7 40 22 55 16 16 34 23 55 23 22 0 40-7 55-23 15-15 23-33 23-55 0-21-8-39-23-55-15-15-33-23-55-23z" horiz-adv-x="1000" />

<glyph glyph-name="info" unicode="&#xe803;" d="M500 850c-276 0-500-224-500-500 0-276 224-500 500-500 276 0 500 224 500 500 0 276-224 500-500 500z m0-222c47 0 85-38 85-84 0-47-38-85-85-85-47 0-85 38-85 85 0 46 38 84 85 84z m113-512c0-13-11-24-24-24h-178c-13 0-24 11-24 24v49c0 13 11 24 24 24h25v129l-2 160c-14 0-47-149-47-136 0 0 26-1 26 13 0 13-2 29-2 60 0 30 129 0 129 0 14 0 25-11 25-25v-201h24c13 0 24-11 24-24v-49z" horiz-adv-x="1000" />

<glyph glyph-name="subscription" unicode="&#xe804;" d="M712 563h-429c-11 0-22-5-30-13-8-8-13-19-13-30v-344c0-11 5-22 13-30 8-8 19-13 30-13h429c12 0 22 5 30 13 9 8 13 19 13 30v344c0 11-4 22-13 30-8 8-18 13-30 13z m-193-333c0-3-1-6-3-8-2-2-5-3-8-3h-171c-3 0-6 1-8 3-2 2-3 5-3 8v21c0 3 1 6 3 8 2 2 5 3 8 3h171c3 0 6-1 8-3 2-2 3-5 3-8v-21z m-11 182c0 7 2 13 6 18 3 6 8 10 14 12 6 3 13 3 19 2 6-1 12-4 16-9 5-4 8-10 9-16 1-7 1-13-2-19-2-6-6-11-12-14-5-4-11-6-18-6-8 0-16 4-22 10-6 6-10 14-10 22z m161-182c0-3-1-6-3-8-2-2-5-3-8-3h-85c-3 0-6 1-8 3-2 2-3 5-3 8v21c0 3 1 6 3 8 2 2 5 3 8 3h85c3 0 6-1 8-3 2-2 3-5 3-8v-21z m-26 105c-1-2-3-4-6-5-2-2-5-3-8-3-2-1-5-1-8 0-3 1-5 2-8 4-2 1-4 4-5 6-2 2-3 5-3 8 0 3 0 6 1 8 0 3 1 6 3 8 11 15 17 33 17 51 0 19-6 37-17 52-2 2-3 5-3 7-1 3-1 6-1 9 0 3 1 5 3 8 1 2 3 4 5 6 3 2 5 3 8 4 3 0 6 0 8 0 3 0 6-1 8-3 3-1 5-3 6-5 17-23 26-50 26-78 0-28-9-55-26-77v0z" horiz-adv-x="1000" />

<glyph glyph-name="lock" unicode="&#xe805;" d="M660 392h-317c-18 0-35-7-48-20-13-12-20-30-20-48v-181c0-18 7-35 20-48 13-13 30-20 48-20h317c18 0 36 7 48 20 13 13 20 30 20 48v181c0 18-7 36-20 48-12 13-30 20-48 20z m-158-204c-9 0-18 3-26 8-7 5-13 12-16 20-4 9-5 18-3 26 2 9 6 17 13 24 6 6 14 10 23 12 9 2 18 1 26-2 8-4 15-10 20-17 5-8 8-16 8-25 0-12-5-24-13-32-9-9-20-14-32-14z m133 250h-45v45c0 24-9 47-26 64-16 17-39 26-63 26h-1c-11 1-23-1-34-6-11-4-21-11-30-19-8-8-15-18-20-29-4-11-7-22-7-34v-47h-46v47c1 36 15 70 40 95 26 25 60 39 95 39h2c17 0 35-4 52-11 16-6 31-16 44-29 12-13 22-28 29-44 7-17 10-34 10-52v-45z" horiz-adv-x="1000" />

<glyph glyph-name="note" unicode="&#xe806;" d="M755 405l-158 159h-318c-29 0-53-24-53-53v-318c0-29 24-53 53-53l423 1c30 0 53 23 53 52v212z m-185 119l146-145h-146v145z" horiz-adv-x="977" />

<glyph glyph-name="clock" unicode="&#xe807;" d="M502 619c-54 0-106-16-150-46-45-30-80-72-100-121-21-50-26-104-16-156 11-53 37-101 75-139 37-38 86-64 138-74 53-10 107-5 156 15 50 21 92 56 122 100 29 44 45 97 45 150 0 72-28 141-79 191-51 51-119 80-191 80v0z m-17-51c0 5 2 9 5 12 3 3 7 5 12 5 4 0 9-2 12-5 3-3 5-7 5-12v-51c0-4-2-8-5-12-3-3-8-5-12-5-5 0-9 2-12 5-3 4-5 8-5 12v51z m-152-237h-51c-4 0-9 2-12 5-3 4-5 8-5 12 0 5 2 9 5 12 3 3 8 5 12 5h51c4 0 9-2 12-5 3-3 5-7 5-12 0-4-2-8-5-12-3-3-8-5-12-5z m186-203c0-4-2-8-5-11-3-4-8-5-12-5-5 0-9 1-12 5-3 3-5 7-5 11v51c0 5 2 9 5 12 3 3 7 5 12 5 4 0 9-2 12-5 3-3 5-7 5-12v-51z m84 203h-101c-3 0-5 1-8 2-2 1-4 3-6 5l-101 135c-3 4-4 9-3 13 0 4 3 8 6 11 4 3 8 4 13 3 4 0 8-3 11-6l96-129h93c5 0 9-2 12-5 3-3 5-7 5-12 0-4-2-8-5-12-3-3-7-5-12-5z m119 0h-51c-5 0-9 2-12 5-3 4-5 8-5 12 0 5 2 9 5 12 3 3 7 5 12 5h51c4 0 8-2 12-5 3-3 5-7 5-12 0-4-2-8-5-12-4-3-8-5-12-5z" horiz-adv-x="1000" />

<glyph glyph-name="calendar" unicode="&#xe808;" d="M680 468h-366c-4 0-6-3-6-6v-336c0-3 2-5 6-5h366c3 0 6 2 6 5v336c0 3-3 6-6 6z m-366 120c-29 0-51-23-51-51v-411c0-28 22-51 51-51h366c28 0 51 23 51 51v411c0 28-23 51-51 51h-366z m39-173h68v-68h-68v68z m114 0h68v-68h-68v68z m113 0h68v-68h-68v68z m-227-96h68v-68h-68v68z m114 0h68v-68h-68v68z m-78 306v-37l-52 0v37l52 0z m268 0v-37l-52 0v37l52 0z" horiz-adv-x="1000" />

<glyph glyph-name="arrow-down" unicode="&#xe809;" d="M333 475l167-167 168 167c17 17 44 17 61 0 17-17 17-44 0-61l-199-198c-16-17-44-17-60 0l-199 198c-17 17-17 44 0 61 17 17 45 17 62 0z" horiz-adv-x="1000" />

<glyph glyph-name="arrow-left" unicode="&#xe80a;" d="M625 520l-169-168 169-169c17-17 17-45 0-62-17-17-44-17-61 0l-200 200c-17 17-17 44 0 61l200 200c17 17 44 17 61 0 17-17 17-45 0-62z" horiz-adv-x="1000" />

<glyph glyph-name="trash" unicode="&#xe80b;" d="M276 522c0-4 1-7 3-9 2-2 5-3 9-3l431 0c3 0 6 1 8 3 2 2 4 5 4 9v28c0 6-3 12-7 17-5 5-11 8-17 8h-114l-9 19c-2 4-5 7-10 9-4 2-9 4-13 4h-116c-5 0-9-2-13-4-4-2-7-5-9-9l-9-19h-114c-7 0-13-3-17-8-5-5-7-11-7-17v-28z m422-57c0 3-2 6-4 8-2 2-5 4-8 4l-366 0c-4 0-7-2-9-4-2-2-3-5-3-8l0-329c0-15 4-26 14-35 10-10 21-14 35-14h293c13 0 24 4 34 14 9 9 14 20 14 35v329z m-276-69l0-228c0-5-2-9-5-12-3-3-7-4-11-4-5 0-9 1-12 4-3 3-4 7-4 12l0 228c0 4 1 8 4 11 3 3 7 5 12 5 4 0 8-2 11-5 3-3 5-7 5-11z m98 0v-228c0-5-2-9-5-12-4-3-8-4-12-4-5 0-9 1-12 4-3 3-4 7-4 12l0 228c0 4 1 8 4 11 3 3 7 5 12 5 4 0 8-2 12-5 3-3 5-7 5-11z m97 0v-228c0-5-2-9-5-12-3-3-7-4-11-4-5 0-9 1-12 4-3 3-4 7-4 12v228c0 4 1 8 4 11 3 3 7 5 12 5 4 0 8-2 11-5 3-3 5-7 5-11z" horiz-adv-x="1000" />

<glyph glyph-name="edit" unicode="&#xe80c;" d="M647 660c8 10 22 12 32 4l62-46c10-7 12-22 5-32l-365-490c-7-10-22-12-32-4l-61 46c-10 7-12 21-5 32l364 490z m-387-635c-5-1-10 3-10 8l3 100c0 6 7 9 12 6l92-69c5-3 4-11-2-13l-95-32z" horiz-adv-x="1000" />

<glyph glyph-name="pin" unicode="&#xe80d;" d="M727 486l-244 142c-13 7-31 3-38-11-8-13-4-31 10-38l24-14-70-123c-24-40-75-54-116-31l-28-48 146-85-99-171 10-38 39 10 99 171 147-85 28 49c-40 23-54 75-31 116l71 122 24-14c14-8 31-3 39 10 8 13 3 31-11 38z" horiz-adv-x="1000" />

<glyph glyph-name="close" unicode="&#xe80e;" d="M503 350l141 140c14 14 14 38 0 52-14 14-37 14-51 0l-141-141-140 141c-14 14-37 14-51 0-14-14-14-37 0-51l140-141-140-140c-14-14-14-37 0-52 14-14 37-14 51 0l140 141 141-141c14-14 37-14 51 0 14 15 14 37 0 51l-141 141z" horiz-adv-x="925" />

<glyph glyph-name="add" unicode="&#xe80f;" d="M541 310l210 0c21 0 38 18 38 38 0 21-17 38-38 38l-210 0 0 210c0 21-17 38-38 38-21 0-38-17-38-38l0-209-210 0c-21 0-38-18-38-39 0-21 17-38 38-38l210 0 1-210c0-21 17-38 38-38 21 0 38 17 38 38l-1 210z" horiz-adv-x="1000" />

<glyph glyph-name="filter" unicode="&#xe810;" d="M421 348l-154 228c-23 34 1 80 42 80h385c41 0 65-44 44-78l-147-231c-5-8-8-17-8-27v-225c0-28-23-51-51-51h-51c-28 0-51 23-51 51v224c0 10-3 20-9 29z" horiz-adv-x="1000" />

<glyph glyph-name="plus" unicode="&#xe811;" d="M523 304l209 0c21 0 38 18 38 38 0 21-17 38-38 38l-209 0 0 209c0 21-17 38-38 38-21 0-38-17-38-38l0-209-208 0c-21 0-38-17-38-38 0-21 17-38 38-38l208 0 0-208c0-21 17-38 38-38 21 0 38 17 38 38l0 208z" horiz-adv-x="970" />

<glyph glyph-name="logout" unicode="&#xe812;" d="M250 534c0 23 18 41 41 41h157c15 0 27-12 27-27 0-15-12-28-27-28h-143v-334h143c15 0 27-12 27-27 0-15-12-28-27-28h-157c-23 0-41 19-41 41v362z m317 9l173-174c11-11 11-28 0-39l-173-173c-11-11-28-11-39 0-11 10-11 28 0 38l127 127-241 0c-15 0-27 13-27 28 0 15 12 27 27 27l241 0-127 127c-11 11-11 28 0 39 11 11 28 11 39 0z" horiz-adv-x="1000" />

<glyph glyph-name="settings" unicode="&#xe813;" d="M788 301v95l-80 10c-4 17-11 33-20 48l50 63c-27 26-41 41-68 67l-63-49c-15 9-31 15-48 20l-10 80h-95l-10-80c-17-5-33-11-48-20l-63 49-67-67 49-63c-9-15-15-31-20-48l-79-10v-95l79-10c5-17 11-33 20-48l-49-63 67-68 63 50c15-9 31-15 48-20l10-80h95l10 80c17 5 33 11 48 20l63-50 68 68-49 63c8 15 15 31 19 48l80 10z m-286-48c-19 0-38 6-53 16-16 11-28 26-35 43-8 17-10 37-6 55 4 19 13 36 26 49 14 13 31 22 49 26 19 4 38 2 55-5 18-8 32-20 43-36 10-15 16-34 16-53 0-25-10-49-28-67-18-18-42-28-67-28z" horiz-adv-x="1000" />

<glyph glyph-name="profile" unicode="&#xe814;" d="M509 132c-62 0-118 0-186 0-2 2-4 3-6 6-2 2-2 5-2 8 0 38 15 76 42 103 28 27 65 43 104 43h87c39 0 76-16 103-43 28-27 43-65 43-103 0-3-1-6-2-8-2-3-4-4-7-6-68 0-113 0-176 0z m-5 189c-66 0-116 69-116 131 0 31 12 61 34 83 22 22 51 34 82 34 31 0 61-12 83-34 22-22 34-52 34-83 0-62-50-131-117-131z" horiz-adv-x="1000" />

<glyph glyph-name="connection" unicode="&#xe815;" d="M688 277c-42 0-74 44-74 83 0 20 8 38 22 52 14 14 32 22 52 22 20 0 38-8 52-22 14-14 22-32 22-52 0-39-32-83-74-83z m-368 0c42 0 74 44 74 83 0 20-8 38-22 52-14 14-33 22-52 22-20 0-39-8-53-22-14-14-21-32-21-52 0-39 31-83 74-83z m360-119h123c2 0 3 2 4 3 1 2 1 3 1 5 0 25-9 48-27 65-17 18-41 27-65 27h-56c-3 0-6 0-9 0 22-24 35-56 35-89 0-3-1-5-2-7-1-2-3-3-4-4z m-172 0c-56 0-106 0-167 0-2 1-4 2-6 5-1 2-2 4-2 7 0 35 14 68 39 92 24 25 57 39 92 39h79c35 0 68-14 93-39 24-24 38-57 38-92 0-3-1-5-2-7-1-3-3-4-6-5-61 0-102 0-158 0z m-180 0h-123c-2 0-3 2-4 3-1 2-2 3-2 5 0 25 10 48 27 65 18 18 41 27 66 27h55c4 0 7 0 10 0-22-24-35-56-35-89 0-3 1-5 2-7 1-2 2-3 4-4z m176 169c-60 0-105 62-105 118 0 28 11 55 30 74 20 20 47 31 75 31 27 0 54-11 74-31 19-19 31-46 31-74 0-56-45-118-105-118z" horiz-adv-x="1000" />

<glyph glyph-name="dashboard" unicode="&#xe816;" d="M513 619l272-222 1-1c5-4 8-10 9-17 0-6-2-13-6-18-4-5-11-8-17-9-7 0-13 2-18 6l-34 28v-281c0-7-3-13-7-18-5-4-11-7-18-7h-148v112c0 3-2 6-4 8-2 3-6 4-9 4h-74c-3 0-7-1-9-4-2-2-4-5-4-8v-112h-148c-7 0-13 3-18 7-4 5-7 11-7 18v281l-34-28c-5-4-11-6-18-5-6 1-12 4-16 9-4 5-6 11-6 18 1 6 4 12 9 17l65 53 50 40 157 129c5 4 10 6 16 6 6 0 11-2 16-6z m-62-312c2-3 6-4 9-4h74c3 0 7 1 9 4 2 2 4 5 4 8v58 17c0 3-2 6-4 8-2 3-6 4-9 4h-74c-3 0-7-1-9-4-2-2-4-5-4-8v-17-58c0-3 2-6 4-8z m0 91c-2-2-4-5-4-8v-17h100v17c0 3-2 6-4 8-2 3-6 4-9 4h-74c-3 0-7-1-9-4z" horiz-adv-x="1000" />
</font>
</defs>
</svg>
