<svg width="205" height="42" viewBox="0 0 205 42" fill="none" xmlns="http://www.w3.org/2000/svg">
<rect width="205" height="42" fill="url(#paint0_linear_1687_276307)"/>
<path d="M47.4838 24.165C46.7038 24.165 45.9788 24.03 45.3088 23.76C44.6488 23.48 44.0638 23.095 43.5538 22.605C43.0538 22.105 42.6638 21.53 42.3838 20.88C42.1138 20.22 41.9788 19.51 41.9788 18.75C41.9788 17.99 42.1138 17.285 42.3838 16.635C42.6638 15.975 43.0538 15.4 43.5538 14.91C44.0638 14.41 44.6538 14.025 45.3238 13.755C45.9938 13.475 46.7138 13.335 47.4838 13.335C48.0338 13.335 48.5688 13.41 49.0888 13.56C49.6188 13.7 50.1038 13.905 50.5438 14.175C50.9938 14.445 51.3838 14.77 51.7138 15.15L50.6638 16.23C50.2738 15.76 49.7988 15.405 49.2388 15.165C48.6788 14.915 48.0938 14.79 47.4838 14.79C46.9238 14.79 46.4038 14.89 45.9238 15.09C45.4538 15.29 45.0438 15.57 44.6938 15.93C44.3438 16.28 44.0688 16.695 43.8688 17.175C43.6788 17.655 43.5838 18.18 43.5838 18.75C43.5838 19.31 43.6788 19.83 43.8688 20.31C44.0688 20.79 44.3488 21.21 44.7088 21.57C45.0688 21.93 45.4888 22.21 45.9688 22.41C46.4488 22.61 46.9688 22.71 47.5288 22.71C48.1388 22.71 48.7138 22.59 49.2538 22.35C49.8038 22.1 50.2688 21.75 50.6488 21.3L51.6838 22.35C51.3338 22.72 50.9338 23.045 50.4838 23.325C50.0438 23.595 49.5638 23.805 49.0438 23.955C48.5338 24.095 48.0138 24.165 47.4838 24.165ZM53.0447 24V16.365H54.5447V17.34C54.7847 16.98 55.0797 16.7 55.4297 16.5C55.7897 16.29 56.1947 16.185 56.6447 16.185C56.9547 16.195 57.2097 16.24 57.4097 16.32V17.67C57.2697 17.61 57.1247 17.57 56.9747 17.55C56.8247 17.52 56.6747 17.505 56.5247 17.505C56.0847 17.505 55.6947 17.625 55.3547 17.865C55.0147 18.095 54.7447 18.435 54.5447 18.885V24H53.0447ZM61.8316 24.135C61.0816 24.135 60.4016 23.96 59.7916 23.61C59.1916 23.26 58.7116 22.785 58.3516 22.185C58.0016 21.585 57.8266 20.915 57.8266 20.175C57.8266 19.445 57.9966 18.785 58.3366 18.195C58.6766 17.595 59.1366 17.12 59.7166 16.77C60.2966 16.41 60.9416 16.23 61.6516 16.23C62.3616 16.23 62.9916 16.41 63.5416 16.77C64.0916 17.12 64.5266 17.6 64.8466 18.21C65.1766 18.81 65.3416 19.49 65.3416 20.25V20.67H59.3266C59.4066 21.09 59.5616 21.465 59.7916 21.795C60.0316 22.125 60.3316 22.385 60.6916 22.575C61.0616 22.765 61.4616 22.86 61.8916 22.86C62.2616 22.86 62.6166 22.805 62.9566 22.695C63.3066 22.575 63.5966 22.405 63.8266 22.185L64.7866 23.13C64.3366 23.47 63.8716 23.725 63.3916 23.895C62.9216 24.055 62.4016 24.135 61.8316 24.135ZM59.3416 19.545H63.8566C63.7966 19.145 63.6566 18.795 63.4366 18.495C63.2266 18.185 62.9616 17.945 62.6416 17.775C62.3316 17.595 61.9916 17.505 61.6216 17.505C61.2416 17.505 60.8916 17.59 60.5716 17.76C60.2516 17.93 59.9816 18.17 59.7616 18.48C59.5516 18.78 59.4116 19.135 59.3416 19.545ZM70.3096 24.12C69.5996 24.12 68.9496 23.945 68.3596 23.595C67.7696 23.245 67.3046 22.775 66.9646 22.185C66.6246 21.585 66.4546 20.915 66.4546 20.175C66.4546 19.435 66.6246 18.77 66.9646 18.18C67.3146 17.59 67.7846 17.12 68.3746 16.77C68.9646 16.42 69.6196 16.245 70.3396 16.245C70.7596 16.245 71.1646 16.31 71.5546 16.44C71.9446 16.57 72.3046 16.76 72.6346 17.01V13.5L74.1346 13.215V24H72.6496V23.265C71.9996 23.835 71.2196 24.12 70.3096 24.12ZM70.5046 22.815C70.9446 22.815 71.3446 22.735 71.7046 22.575C72.0746 22.415 72.3846 22.185 72.6346 21.885V18.45C72.3846 18.17 72.0746 17.95 71.7046 17.79C71.3446 17.62 70.9446 17.535 70.5046 17.535C70.0246 17.535 69.5896 17.65 69.1996 17.88C68.8096 18.11 68.4996 18.425 68.2696 18.825C68.0396 19.215 67.9246 19.66 67.9246 20.16C67.9246 20.66 68.0396 21.11 68.2696 21.51C68.4996 21.91 68.8096 22.23 69.1996 22.47C69.5896 22.7 70.0246 22.815 70.5046 22.815ZM79.5709 24.135C78.8209 24.135 78.1409 23.96 77.5309 23.61C76.9309 23.26 76.4509 22.785 76.0909 22.185C75.7409 21.585 75.5659 20.915 75.5659 20.175C75.5659 19.445 75.7359 18.785 76.0759 18.195C76.4159 17.595 76.8759 17.12 77.4559 16.77C78.0359 16.41 78.6809 16.23 79.3909 16.23C80.1009 16.23 80.7309 16.41 81.2809 16.77C81.8309 17.12 82.2659 17.6 82.5859 18.21C82.9159 18.81 83.0809 19.49 83.0809 20.25V20.67H77.0659C77.1459 21.09 77.3009 21.465 77.5309 21.795C77.7709 22.125 78.0709 22.385 78.4309 22.575C78.8009 22.765 79.2009 22.86 79.6309 22.86C80.0009 22.86 80.3559 22.805 80.6959 22.695C81.0459 22.575 81.3359 22.405 81.5659 22.185L82.5259 23.13C82.0759 23.47 81.6109 23.725 81.1309 23.895C80.6609 24.055 80.1409 24.135 79.5709 24.135ZM77.0809 19.545H81.5959C81.5359 19.145 81.3959 18.795 81.1759 18.495C80.9659 18.185 80.7009 17.945 80.3809 17.775C80.0709 17.595 79.7309 17.505 79.3609 17.505C78.9809 17.505 78.6309 17.59 78.3109 17.76C77.9909 17.93 77.7209 18.17 77.5009 18.48C77.2909 18.78 77.1509 19.135 77.0809 19.545ZM84.5095 24V16.365H86.0095V17.145C86.5995 16.525 87.3645 16.215 88.3045 16.215C88.8945 16.215 89.4095 16.34 89.8495 16.59C90.2995 16.84 90.6495 17.19 90.8995 17.64C91.1595 18.09 91.2895 18.61 91.2895 19.2V24H89.7895V19.455C89.7895 18.855 89.6195 18.385 89.2795 18.045C88.9495 17.695 88.4845 17.52 87.8845 17.52C87.4845 17.52 87.1245 17.605 86.8045 17.775C86.4845 17.945 86.2195 18.19 86.0095 18.51V24H84.5095ZM96.6053 24.135C95.8753 24.135 95.2103 23.96 94.6103 23.61C94.0103 23.26 93.5353 22.785 93.1853 22.185C92.8453 21.585 92.6753 20.915 92.6753 20.175C92.6753 19.435 92.8503 18.77 93.2003 18.18C93.5503 17.58 94.0203 17.105 94.6103 16.755C95.2103 16.395 95.8753 16.215 96.6053 16.215C97.1853 16.215 97.7403 16.325 98.2703 16.545C98.8103 16.765 99.2753 17.075 99.6653 17.475L98.7353 18.51C98.4453 18.19 98.1203 17.95 97.7603 17.79C97.4003 17.63 97.0253 17.55 96.6353 17.55C96.1753 17.55 95.7553 17.665 95.3753 17.895C95.0053 18.125 94.7103 18.44 94.4903 18.84C94.2703 19.24 94.1603 19.685 94.1603 20.175C94.1603 20.665 94.2703 21.11 94.4903 21.51C94.7103 21.91 95.0103 22.23 95.3903 22.47C95.7703 22.7 96.1953 22.815 96.6653 22.815C97.0553 22.815 97.4203 22.74 97.7603 22.59C98.1003 22.43 98.4203 22.2 98.7203 21.9L99.6353 22.86C99.2353 23.27 98.7703 23.585 98.2403 23.805C97.7203 24.025 97.1753 24.135 96.6053 24.135ZM104.283 24.135C103.533 24.135 102.853 23.96 102.243 23.61C101.643 23.26 101.163 22.785 100.803 22.185C100.453 21.585 100.278 20.915 100.278 20.175C100.278 19.445 100.448 18.785 100.788 18.195C101.128 17.595 101.588 17.12 102.168 16.77C102.748 16.41 103.393 16.23 104.103 16.23C104.813 16.23 105.443 16.41 105.993 16.77C106.543 17.12 106.978 17.6 107.298 18.21C107.628 18.81 107.793 19.49 107.793 20.25V20.67H101.778C101.858 21.09 102.013 21.465 102.243 21.795C102.483 22.125 102.783 22.385 103.143 22.575C103.513 22.765 103.913 22.86 104.343 22.86C104.713 22.86 105.068 22.805 105.408 22.695C105.758 22.575 106.048 22.405 106.278 22.185L107.238 23.13C106.788 23.47 106.323 23.725 105.843 23.895C105.373 24.055 104.853 24.135 104.283 24.135ZM101.793 19.545H106.308C106.248 19.145 106.108 18.795 105.888 18.495C105.678 18.185 105.413 17.945 105.093 17.775C104.783 17.595 104.443 17.505 104.073 17.505C103.693 17.505 103.343 17.59 103.023 17.76C102.703 17.93 102.433 18.17 102.213 18.48C102.003 18.78 101.863 19.135 101.793 19.545ZM114.456 24.165C113.676 24.165 112.951 24.03 112.281 23.76C111.621 23.48 111.036 23.095 110.526 22.605C110.026 22.105 109.636 21.53 109.356 20.88C109.086 20.22 108.951 19.51 108.951 18.75C108.951 17.99 109.086 17.285 109.356 16.635C109.636 15.975 110.026 15.4 110.526 14.91C111.036 14.41 111.626 14.025 112.296 13.755C112.966 13.475 113.686 13.335 114.456 13.335C115.006 13.335 115.541 13.41 116.061 13.56C116.591 13.7 117.076 13.905 117.516 14.175C117.966 14.445 118.356 14.77 118.686 15.15L117.636 16.23C117.246 15.76 116.771 15.405 116.211 15.165C115.651 14.915 115.066 14.79 114.456 14.79C113.896 14.79 113.376 14.89 112.896 15.09C112.426 15.29 112.016 15.57 111.666 15.93C111.316 16.28 111.041 16.695 110.841 17.175C110.651 17.655 110.556 18.18 110.556 18.75C110.556 19.31 110.651 19.83 110.841 20.31C111.041 20.79 111.321 21.21 111.681 21.57C112.041 21.93 112.461 22.21 112.941 22.41C113.421 22.61 113.941 22.71 114.501 22.71C115.111 22.71 115.686 22.59 116.226 22.35C116.776 22.1 117.241 21.75 117.621 21.3L118.656 22.35C118.306 22.72 117.906 23.045 117.456 23.325C117.016 23.595 116.536 23.805 116.016 23.955C115.506 24.095 114.986 24.165 114.456 24.165ZM120.197 24V13.5H124.952C125.652 13.5 126.262 13.63 126.782 13.89C127.312 14.15 127.722 14.515 128.012 14.985C128.312 15.445 128.462 15.985 128.462 16.605C128.462 17.295 128.267 17.89 127.877 18.39C127.487 18.89 126.962 19.25 126.302 19.47L128.642 24H126.902L124.727 19.695H121.772V24H120.197ZM121.772 18.375H124.832C125.452 18.375 125.947 18.22 126.317 17.91C126.697 17.59 126.887 17.16 126.887 16.62C126.887 16.1 126.697 15.68 126.317 15.36C125.947 15.04 125.452 14.88 124.832 14.88H121.772V18.375ZM130.085 24V13.5H132.2L135.485 20.22L138.77 13.5H140.87V24H139.385V15.42L135.47 23.25L131.555 15.42V24H130.085ZM143.815 24.105C143.555 24.105 143.33 24.015 143.14 23.835C142.96 23.645 142.87 23.42 142.87 23.16C142.87 22.9 142.96 22.68 143.14 22.5C143.33 22.31 143.555 22.215 143.815 22.215C144.075 22.215 144.295 22.31 144.475 22.5C144.665 22.68 144.76 22.9 144.76 23.16C144.76 23.42 144.665 23.645 144.475 23.835C144.295 24.015 144.075 24.105 143.815 24.105ZM149.779 24.135C149.049 24.135 148.384 23.96 147.784 23.61C147.184 23.26 146.709 22.785 146.359 22.185C146.019 21.585 145.849 20.915 145.849 20.175C145.849 19.435 146.024 18.77 146.374 18.18C146.724 17.58 147.194 17.105 147.784 16.755C148.384 16.395 149.049 16.215 149.779 16.215C150.359 16.215 150.914 16.325 151.444 16.545C151.984 16.765 152.449 17.075 152.839 17.475L151.909 18.51C151.619 18.19 151.294 17.95 150.934 17.79C150.574 17.63 150.199 17.55 149.809 17.55C149.349 17.55 148.929 17.665 148.549 17.895C148.179 18.125 147.884 18.44 147.664 18.84C147.444 19.24 147.334 19.685 147.334 20.175C147.334 20.665 147.444 21.11 147.664 21.51C147.884 21.91 148.184 22.23 148.564 22.47C148.944 22.7 149.369 22.815 149.839 22.815C150.229 22.815 150.594 22.74 150.934 22.59C151.274 22.43 151.594 22.2 151.894 21.9L152.809 22.86C152.409 23.27 151.944 23.585 151.414 23.805C150.894 24.025 150.349 24.135 149.779 24.135ZM157.427 24.15C156.687 24.15 156.012 23.975 155.402 23.625C154.802 23.275 154.327 22.8 153.977 22.2C153.627 21.6 153.452 20.93 153.452 20.19C153.452 19.45 153.627 18.78 153.977 18.18C154.327 17.58 154.802 17.105 155.402 16.755C156.012 16.395 156.687 16.215 157.427 16.215C158.177 16.215 158.852 16.395 159.452 16.755C160.052 17.105 160.527 17.58 160.877 18.18C161.227 18.78 161.402 19.45 161.402 20.19C161.402 20.93 161.227 21.6 160.877 22.2C160.527 22.8 160.052 23.275 159.452 23.625C158.852 23.975 158.177 24.15 157.427 24.15ZM157.427 22.83C157.897 22.83 158.322 22.715 158.702 22.485C159.082 22.245 159.382 21.925 159.602 21.525C159.822 21.125 159.932 20.675 159.932 20.175C159.932 19.685 159.817 19.245 159.587 18.855C159.367 18.455 159.067 18.135 158.687 17.895C158.317 17.655 157.897 17.535 157.427 17.535C156.957 17.535 156.532 17.655 156.152 17.895C155.782 18.135 155.482 18.455 155.252 18.855C155.032 19.245 154.922 19.685 154.922 20.175C154.922 20.675 155.032 21.125 155.252 21.525C155.472 21.925 155.772 22.245 156.152 22.485C156.532 22.715 156.957 22.83 157.427 22.83ZM162.82 24V16.365H164.32V17.1C164.89 16.51 165.605 16.215 166.465 16.215C166.985 16.215 167.445 16.33 167.845 16.56C168.255 16.79 168.58 17.1 168.82 17.49C169.14 17.07 169.515 16.755 169.945 16.545C170.375 16.325 170.86 16.215 171.4 16.215C171.97 16.215 172.465 16.34 172.885 16.59C173.315 16.84 173.65 17.19 173.89 17.64C174.14 18.09 174.265 18.61 174.265 19.2V24H172.765V19.455C172.765 18.855 172.605 18.385 172.285 18.045C171.975 17.695 171.55 17.52 171.01 17.52C170.64 17.52 170.305 17.605 170.005 17.775C169.705 17.945 169.445 18.205 169.225 18.555C169.245 18.655 169.26 18.76 169.27 18.87C169.28 18.98 169.285 19.09 169.285 19.2V24H167.8V19.455C167.8 18.855 167.64 18.385 167.32 18.045C167.01 17.695 166.585 17.52 166.045 17.52C165.685 17.52 165.36 17.6 165.07 17.76C164.78 17.91 164.53 18.14 164.32 18.45V24H162.82Z" fill="#22252D"/>
<path d="M41 26.7727C41 27.2998 41.3867 27.7272 41.8636 27.7272H52.2273C52.7042 27.7272 53.0909 27.2998 53.0909 26.7727C53.0909 26.2455 52.7042 25.8181 52.2273 25.8181H41.8636C41.3867 25.8181 41 26.2455 41 26.7727Z" fill="#0468BF"/>
<defs>
<linearGradient id="paint0_linear_1687_276307" x1="0" y1="0" x2="189.975" y2="39.9211" gradientUnits="userSpaceOnUse">
<stop stop-color="#D6EAFC"/>
<stop offset="0.541712" stop-color="#EFF7FE" stop-opacity="0.5625"/>
<stop offset="1" stop-color="#EFF7FE" stop-opacity="0"/>
</linearGradient>
</defs>
</svg>
