<svg width="8" height="9" viewBox="0 0 8 9" fill="none" xmlns="http://www.w3.org/2000/svg">
<g clip-path="url(#clip0_2524_284608)">
<path d="M7.14286 0.5H0.857143C0.383929 0.5 0 0.883929 0 1.35714V7.64286C0 8.11607 0.383929 8.5 0.857143 8.5H7.14286C7.61607 8.5 8 8.11607 8 7.64286V1.35714C8 0.883929 7.61607 0.5 7.14286 0.5ZM4.95179 7.35179C4.80179 7.37857 4.74643 7.28571 4.74643 7.20893C4.74643 7.1125 4.75 6.61964 4.75 6.22143C4.75 5.94286 4.65714 5.76607 4.54821 5.67321C5.20893 5.6 5.90536 5.50893 5.90536 4.36786C5.90536 4.04286 5.78929 3.88036 5.6 3.67143C5.63036 3.59464 5.73214 3.27857 5.56964 2.86786C5.32143 2.79107 4.75357 3.1875 4.75357 3.1875C4.51786 3.12143 4.2625 3.0875 4.01071 3.0875C3.75893 3.0875 3.50357 3.12143 3.26786 3.1875C3.26786 3.1875 2.7 2.79107 2.45179 2.86786C2.28929 3.27679 2.38929 3.59286 2.42143 3.67143C2.23214 3.88036 2.14286 4.04286 2.14286 4.36786C2.14286 5.50357 2.80893 5.6 3.46964 5.67321C3.38393 5.75 3.30714 5.88214 3.28036 6.07143C3.11071 6.14821 2.67679 6.28036 2.41786 5.82321C2.25536 5.54107 1.9625 5.51786 1.9625 5.51786C1.67321 5.51429 1.94286 5.7 1.94286 5.7C2.13571 5.78929 2.27143 6.13214 2.27143 6.13214C2.44464 6.6625 3.27321 6.48393 3.27321 6.48393C3.27321 6.73214 3.27679 7.13571 3.27679 7.20893C3.27679 7.28571 3.22321 7.37857 3.07143 7.35179C1.89286 6.95714 1.06786 5.83571 1.06786 4.525C1.06786 2.88571 2.32143 1.64107 3.96071 1.64107C5.6 1.64107 6.92857 2.88571 6.92857 4.525C6.93036 5.83571 6.13036 6.95893 4.95179 7.35179ZM3.2 6.26071C3.16607 6.26786 3.13393 6.25357 3.13036 6.23036C3.12679 6.20357 3.15 6.18036 3.18393 6.17321C3.21786 6.16964 3.25 6.18393 3.25357 6.20714C3.25893 6.23036 3.23571 6.25357 3.2 6.26071ZM3.03036 6.24464C3.03036 6.26786 3.00357 6.2875 2.96786 6.2875C2.92857 6.29107 2.90179 6.27143 2.90179 6.24464C2.90179 6.22143 2.92857 6.20179 2.96429 6.20179C2.99821 6.19821 3.03036 6.21786 3.03036 6.24464ZM2.78571 6.225C2.77857 6.24821 2.74286 6.25893 2.7125 6.24821C2.67857 6.24107 2.65536 6.21429 2.6625 6.19107C2.66964 6.16786 2.70536 6.15714 2.73571 6.16429C2.77143 6.175 2.79464 6.20179 2.78571 6.225ZM2.56607 6.12857C2.55 6.14821 2.51607 6.14464 2.48929 6.11786C2.4625 6.09464 2.45536 6.06071 2.47321 6.04464C2.48929 6.025 2.52321 6.02857 2.55 6.05536C2.57321 6.07857 2.58214 6.11429 2.56607 6.12857ZM2.40357 5.96607C2.3875 5.97679 2.35714 5.96607 2.3375 5.93929C2.31786 5.9125 2.31786 5.88214 2.3375 5.86964C2.35714 5.85357 2.3875 5.86607 2.40357 5.89286C2.42321 5.91964 2.42321 5.95179 2.40357 5.96607V5.96607ZM2.2875 5.79286C2.27143 5.80893 2.24464 5.8 2.225 5.78214C2.20536 5.75893 2.20179 5.73214 2.21786 5.71964C2.23393 5.70357 2.26071 5.7125 2.28036 5.73036C2.3 5.75357 2.30357 5.78036 2.2875 5.79286ZM2.16786 5.66071C2.16071 5.67679 2.1375 5.68036 2.11786 5.66786C2.09464 5.65714 2.08393 5.6375 2.09107 5.62143C2.09821 5.61071 2.11786 5.60536 2.14107 5.61429C2.16429 5.62679 2.175 5.64643 2.16786 5.66071Z" fill="black"/>
</g>
<defs>
<clipPath id="clip0_2524_284608">
<rect width="8" height="8" fill="white" transform="translate(0 0.5)"/>
</clipPath>
</defs>
</svg>
