<svg width="8" height="9" viewBox="0 0 8 9" fill="none" xmlns="http://www.w3.org/2000/svg">
<path d="M7.42857 0.5625H0.569643C0.255357 0.5625 0 0.817383 0 1.13027V7.86973C0 8.18262 0.255357 8.4375 0.569643 8.4375H7.42857C7.74286 8.4375 8 8.18262 8 7.86973V1.13027C8 0.817383 7.74286 0.5625 7.42857 0.5625ZM2.41786 7.3125H1.23214V3.5543H2.41964V7.3125H2.41786ZM1.825 3.04102C1.44464 3.04102 1.1375 2.73691 1.1375 2.36426C1.1375 1.9916 1.44464 1.6875 1.825 1.6875C2.20357 1.6875 2.5125 1.9916 2.5125 2.36426C2.5125 2.73867 2.20536 3.04102 1.825 3.04102ZM6.8625 7.3125H5.67679V5.48438C5.67679 5.04844 5.66786 4.4877 5.06071 4.4877C4.44286 4.4877 4.34821 4.96231 4.34821 5.45273V7.3125H3.1625V3.5543H4.3V4.06758H4.31607C4.475 3.77227 4.8625 3.46113 5.43929 3.46113C6.63929 3.46113 6.8625 4.23984 6.8625 5.25234V7.3125Z" fill="#2D64BC"/>
</svg>
