<svg width="8" height="9" viewBox="0 0 8 9" fill="none" xmlns="http://www.w3.org/2000/svg">
<path fill-rule="evenodd" clip-rule="evenodd" d="M7.49164 3.57693H0.515967L0.515936 5.42309L7.49164 5.45805V3.57693ZM0.515977 2.96155L0.515926 6.03847H7.593V2.96155H0.515977Z" fill="black"/>
<path fill-rule="evenodd" clip-rule="evenodd" d="M4 7.88462C5.86927 7.88462 7.38462 6.36927 7.38462 4.5C7.38462 2.63073 5.86927 1.11538 4 1.11538C2.13073 1.11538 0.615385 2.63073 0.615385 4.5C0.615385 6.36927 2.13073 7.88462 4 7.88462ZM4 8.5C6.20914 8.5 8 6.70914 8 4.5C8 2.29086 6.20914 0.5 4 0.5C1.79086 0.5 0 2.29086 0 4.5C0 6.70914 1.79086 8.5 4 8.5Z" fill="#060606"/>
<path fill-rule="evenodd" clip-rule="evenodd" d="M4.98117 7.03667C5.31384 6.41886 5.53846 5.52312 5.53846 4.5C5.53846 3.47688 5.31384 2.58114 4.98117 1.96333C4.63501 1.32045 4.25991 1.11538 4 1.11538C3.74009 1.11538 3.36499 1.32045 3.01883 1.96333C2.68616 2.58114 2.46154 3.47688 2.46154 4.5C2.46154 5.52312 2.68616 6.41886 3.01883 7.03667C3.36499 7.67955 3.74009 7.88462 4 7.88462C4.25991 7.88462 4.63501 7.67955 4.98117 7.03667ZM4 8.5C5.18954 8.5 6.15385 6.70914 6.15385 4.5C6.15385 2.29086 5.18954 0.5 4 0.5C2.81046 0.5 1.84615 2.29086 1.84615 4.5C1.84615 6.70914 2.81046 8.5 4 8.5Z" fill="black"/>
</svg>
