<svg width="216" height="216" viewBox="0 0 216 216" fill="none" xmlns="http://www.w3.org/2000/svg">
<circle cx="108" cy="108" r="108" fill="#E5E9EF"/>
<path d="M112.008 112.04L136.677 112.04C139.157 112.04 141.159 109.973 141.191 107.526C141.191 105.046 139.188 103.043 136.709 103.043L112.008 103.043L112.008 78.3421C112.008 75.8625 110.005 73.8597 107.525 73.8597C105.046 73.8597 103.043 75.8625 103.043 78.3421L103.043 103.011L78.3739 103.011C75.8943 103.011 73.8915 105.078 73.8597 107.525C73.8597 110.005 75.8625 112.008 78.3421 112.008L103.043 112.008L103.043 136.709C103.043 139.188 105.046 141.191 107.525 141.191C110.005 141.191 112.008 139.188 112.008 136.709V112.04Z" fill="#004076"/>
</svg>
