<svg width="197" height="64" viewBox="0 0 197 64" fill="none" xmlns="http://www.w3.org/2000/svg">
<rect width="28" height="4" rx="2" transform="matrix(1 0 0 -1 14 46)" fill="#0468BF"/>
<path d="M28.4108 37.396C26.5388 37.396 24.7988 37.072 23.1908 36.424C21.6068 35.752 20.2028 34.828 18.9788 33.652C17.7788 32.452 16.8428 31.072 16.1708 29.512C15.5228 27.928 15.1988 26.224 15.1988 24.4C15.1988 22.576 15.5228 20.884 16.1708 19.324C16.8428 17.74 17.7788 16.36 18.9788 15.184C20.2028 13.984 21.6188 13.06 23.2268 12.412C24.8348 11.74 26.5628 11.404 28.4108 11.404C29.7308 11.404 31.0148 11.584 32.2628 11.944C33.5348 12.28 34.6988 12.772 35.7548 13.42C36.8348 14.068 37.7708 14.848 38.5628 15.76L36.0428 18.352C35.1068 17.224 33.9668 16.372 32.6228 15.796C31.2788 15.196 29.8748 14.896 28.4108 14.896C27.0668 14.896 25.8188 15.136 24.6668 15.616C23.5388 16.096 22.5548 16.768 21.7148 17.632C20.8748 18.472 20.2148 19.468 19.7348 20.62C19.2788 21.772 19.0508 23.032 19.0508 24.4C19.0508 25.744 19.2788 26.992 19.7348 28.144C20.2148 29.296 20.8868 30.304 21.7508 31.168C22.6148 32.032 23.6228 32.704 24.7748 33.184C25.9268 33.664 27.1748 33.904 28.5188 33.904C29.9828 33.904 31.3628 33.616 32.6588 33.04C33.9788 32.44 35.0948 31.6 36.0068 30.52L38.4908 33.04C37.6508 33.928 36.6908 34.708 35.6108 35.38C34.5548 36.028 33.4028 36.532 32.1548 36.892C30.9308 37.228 29.6828 37.396 28.4108 37.396ZM43.017 37V18.676H46.617V21.016C47.193 20.152 47.901 19.48 48.741 19C49.605 18.496 50.577 18.244 51.657 18.244C52.401 18.268 53.013 18.376 53.493 18.568V21.808C53.157 21.664 52.809 21.568 52.449 21.52C52.089 21.448 51.729 21.412 51.369 21.412C50.313 21.412 49.377 21.7 48.561 22.276C47.745 22.828 47.097 23.644 46.617 24.724V37H43.017ZM65.3657 37.324C63.5657 37.324 61.9337 36.904 60.4697 36.064C59.0297 35.224 57.8777 34.084 57.0137 32.644C56.1737 31.204 55.7537 29.596 55.7537 27.82C55.7537 26.068 56.1617 24.484 56.9777 23.068C57.7937 21.628 58.8977 20.488 60.2897 19.648C61.6817 18.784 63.2297 18.352 64.9337 18.352C66.6377 18.352 68.1497 18.784 69.4697 19.648C70.7897 20.488 71.8337 21.64 72.6017 23.104C73.3937 24.544 73.7897 26.176 73.7897 28V29.008H59.3537C59.5457 30.016 59.9177 30.916 60.4697 31.708C61.0457 32.5 61.7657 33.124 62.6297 33.58C63.5177 34.036 64.4777 34.264 65.5097 34.264C66.3977 34.264 67.2497 34.132 68.0657 33.868C68.9057 33.58 69.6017 33.172 70.1537 32.644L72.4577 34.912C71.3777 35.728 70.2617 36.34 69.1097 36.748C67.9817 37.132 66.7337 37.324 65.3657 37.324ZM59.3897 26.308H70.2257C70.0817 25.348 69.7457 24.508 69.2177 23.788C68.7137 23.044 68.0777 22.468 67.3097 22.06C66.5657 21.628 65.7497 21.412 64.8617 21.412C63.9497 21.412 63.1097 21.616 62.3417 22.024C61.5737 22.432 60.9257 23.008 60.3977 23.752C59.8937 24.472 59.5577 25.324 59.3897 26.308ZM86.9727 37.288C85.2687 37.288 83.7087 36.868 82.2927 36.028C80.8767 35.188 79.7607 34.06 78.9447 32.644C78.1287 31.204 77.7207 29.596 77.7207 27.82C77.7207 26.044 78.1287 24.448 78.9447 23.032C79.7847 21.616 80.9127 20.488 82.3287 19.648C83.7447 18.808 85.3167 18.388 87.0447 18.388C88.0527 18.388 89.0247 18.544 89.9607 18.856C90.8967 19.168 91.7607 19.624 92.5527 20.224V11.8L96.1527 11.116V37H92.5887V35.236C91.0287 36.604 89.1567 37.288 86.9727 37.288ZM87.4407 34.156C88.4967 34.156 89.4567 33.964 90.3207 33.58C91.2087 33.196 91.9527 32.644 92.5527 31.924V23.68C91.9527 23.008 91.2087 22.48 90.3207 22.096C89.4567 21.688 88.4967 21.484 87.4407 21.484C86.2887 21.484 85.2447 21.76 84.3087 22.312C83.3727 22.864 82.6287 23.62 82.0767 24.58C81.5247 25.516 81.2487 26.584 81.2487 27.784C81.2487 28.984 81.5247 30.064 82.0767 31.024C82.6287 31.984 83.3727 32.752 84.3087 33.328C85.2447 33.88 86.2887 34.156 87.4407 34.156ZM110.46 37.324C108.66 37.324 107.028 36.904 105.564 36.064C104.124 35.224 102.972 34.084 102.108 32.644C101.268 31.204 100.848 29.596 100.848 27.82C100.848 26.068 101.256 24.484 102.072 23.068C102.888 21.628 103.992 20.488 105.384 19.648C106.776 18.784 108.324 18.352 110.028 18.352C111.732 18.352 113.244 18.784 114.564 19.648C115.884 20.488 116.928 21.64 117.696 23.104C118.488 24.544 118.884 26.176 118.884 28V29.008H104.448C104.64 30.016 105.012 30.916 105.564 31.708C106.14 32.5 106.86 33.124 107.724 33.58C108.612 34.036 109.572 34.264 110.604 34.264C111.492 34.264 112.344 34.132 113.16 33.868C114 33.58 114.696 33.172 115.248 32.644L117.552 34.912C116.472 35.728 115.356 36.34 114.204 36.748C113.076 37.132 111.828 37.324 110.46 37.324ZM104.484 26.308H115.32C115.176 25.348 114.84 24.508 114.312 23.788C113.808 23.044 113.172 22.468 112.404 22.06C111.66 21.628 110.844 21.412 109.956 21.412C109.044 21.412 108.204 21.616 107.436 22.024C106.668 22.432 106.02 23.008 105.492 23.752C104.988 24.472 104.652 25.324 104.484 26.308ZM123.573 37V18.676H127.173V20.548C128.589 19.06 130.425 18.316 132.681 18.316C134.097 18.316 135.333 18.616 136.389 19.216C137.469 19.816 138.309 20.656 138.909 21.736C139.533 22.816 139.845 24.064 139.845 25.48V37H136.245V26.092C136.245 24.652 135.837 23.524 135.021 22.708C134.229 21.868 133.113 21.448 131.673 21.448C130.713 21.448 129.849 21.652 129.081 22.06C128.313 22.468 127.677 23.056 127.173 23.824V37H123.573ZM153.862 37.324C152.11 37.324 150.514 36.904 149.074 36.064C147.634 35.224 146.494 34.084 145.654 32.644C144.838 31.204 144.43 29.596 144.43 27.82C144.43 26.044 144.85 24.448 145.69 23.032C146.53 21.592 147.658 20.452 149.074 19.612C150.514 18.748 152.11 18.316 153.862 18.316C155.254 18.316 156.586 18.58 157.858 19.108C159.154 19.636 160.27 20.38 161.206 21.34L158.974 23.824C158.278 23.056 157.498 22.48 156.634 22.096C155.77 21.712 154.87 21.52 153.934 21.52C152.83 21.52 151.822 21.796 150.91 22.348C150.022 22.9 149.314 23.656 148.786 24.616C148.258 25.576 147.994 26.644 147.994 27.82C147.994 28.996 148.258 30.064 148.786 31.024C149.314 31.984 150.034 32.752 150.946 33.328C151.858 33.88 152.878 34.156 154.006 34.156C154.942 34.156 155.818 33.976 156.634 33.616C157.45 33.232 158.218 32.68 158.938 31.96L161.134 34.264C160.174 35.248 159.058 36.004 157.786 36.532C156.538 37.06 155.23 37.324 153.862 37.324ZM173.548 37.324C171.748 37.324 170.116 36.904 168.652 36.064C167.212 35.224 166.06 34.084 165.196 32.644C164.356 31.204 163.936 29.596 163.936 27.82C163.936 26.068 164.344 24.484 165.16 23.068C165.976 21.628 167.08 20.488 168.472 19.648C169.864 18.784 171.412 18.352 173.116 18.352C174.82 18.352 176.332 18.784 177.652 19.648C178.972 20.488 180.016 21.64 180.784 23.104C181.576 24.544 181.972 26.176 181.972 28V29.008H167.536C167.728 30.016 168.1 30.916 168.652 31.708C169.228 32.5 169.948 33.124 170.812 33.58C171.7 34.036 172.66 34.264 173.692 34.264C174.58 34.264 175.432 34.132 176.248 33.868C177.088 33.58 177.784 33.172 178.336 32.644L180.64 34.912C179.56 35.728 178.444 36.34 177.292 36.748C176.164 37.132 174.916 37.324 173.548 37.324ZM167.572 26.308H178.408C178.264 25.348 177.928 24.508 177.4 23.788C176.896 23.044 176.26 22.468 175.492 22.06C174.748 21.628 173.932 21.412 173.044 21.412C172.132 21.412 171.292 21.616 170.524 22.024C169.756 22.432 169.108 23.008 168.58 23.752C168.076 24.472 167.74 25.324 167.572 26.308Z" fill="#22252D"/>
</svg>
